# xmcd CD database file
# Copyright 1993-1996 (C) Ti Kan
#
# Track frame offsets:
#    182
#    17302
#    39015
#    58242
#    79025
#    102090
#    114800
#    135410
#    148325
#    187107
#    212970
#    226735
#    250355
#    266630
#    285795
#    306712
#
# Disc length: 4306 seconds
#
# Revision: 0
# Processed by: cddbd v1.4b41PL1 Copyright (c) Steve Scherf et al.
# Submitted via: MyCDplayer 2.4.0c  (wjohn@fix.net)
#
DISCID=da10d010
DTITLE=Various Artist - 
DTITLE=The Blues Is Alright: Greatest Hits
DYEAR=1900
DGENRE=
TTITLE0=Get Your Money Where You Spend Your Time
TTITLE1=Open House At My House - Z.Z. Hill
TTITLE2=Sunshine Lady - Latimore
TTITLE3=I Found A Love - Johnnie Taylor
TTITLE4=Annie Mae's Cafe - Little Milton
TTITLE5=Steal Away - Ted Taylor
TTITLE6=Something Is Going Wrong - Johnnie Taylor
TTITLE7=Big Boss Man - Jimmy Reed
TTITLE8=It Be's That Way Sometimes - Denise LaSalle
TTITLE9=Sunday Morning Love - Bobby "Blue" Bland
TTITLE10=Sweet Little Angel - B.B. King
TTITLE11=Down home Blues - Z.Z. Hill
TTITLE12=The End Of The Rainbow - McKinnley Mitchell
TTITLE13=The Blues Is Alright - Little Milton
TTITLE14=Your husband Is Cheatin' On Us-Denise LaSalle
TTITLE15=Misty Blue - Dorothy Moore
EXTD=
EXTT0=Bobby "Blue" Bland
EXTT1=
EXTT2=
EXTT3=
EXTT4=
EXTT5=
EXTT6=
EXTT7=
EXTT8=
EXTT9=
EXTT10=
EXTT11=
EXTT12=
EXTT13=
EXTT14=
EXTT15=
PLAYORDER=
